<svg xmlns="http://www.w3.org/2000/svg" version="1.1" xmlns:xlink="http://www.w3.org/1999/xlink" xmlns:svgjs="http://svgjs.com/svgjs" width="1440" height="560" preserveAspectRatio="none" viewBox="0 0 1440 560"><g mask="url(&quot;#SvgjsMask1228&quot;)" fill="none"><path d="M747.675,395.743C768.405,396.574,783.328,378.224,793.593,360.194C803.72,342.406,810.014,321.317,800.307,303.296C790.179,284.492,769.032,274.707,747.675,274.944C726.736,275.176,706.218,285.626,697.028,304.442C688.656,321.582,698.464,340.073,707.717,356.753C717.393,374.195,727.745,394.945,747.675,395.743" fill="rgba(28, 83, 142, 0.4)" class="triangle-float2"></path><path d="M1138.043,387.027C1166.513,387.315,1194.724,375.038,1208.745,350.259C1222.584,325.802,1218.486,295.403,1203.246,271.794C1189.252,250.115,1163.845,240.546,1138.043,240.731C1112.609,240.914,1088.02,251.212,1074.441,272.719C1059.892,295.761,1056.525,325.041,1069.775,348.854C1083.362,373.273,1110.1,386.744,1138.043,387.027" fill="rgba(28, 83, 142, 0.4)" class="triangle-float3"></path><path d="M997.643,551.215C1056.56,552.537,1102.083,504.519,1129.809,452.516C1155.72,403.918,1160.48,345.786,1132.443,298.383C1104.874,251.771,1051.795,229.58,997.643,229.056C942.441,228.522,885.277,247.594,858.247,295.729C831.649,343.093,849.346,399.123,875.363,446.808C902.877,497.235,940.212,549.927,997.643,551.215" fill="rgba(28, 83, 142, 0.4)" class="triangle-float2"></path><path d="M238.383,493.903C264.432,495.323,288.261,479.189,301.077,456.466C313.672,434.135,312.995,406.795,299.97,384.712C287.154,362.983,263.607,350.54,238.383,350.169C212.455,349.788,185.513,359.833,173.577,382.853C162.296,404.609,174.153,429.055,186.505,450.221C198.718,471.148,214.189,492.584,238.383,493.903" fill="rgba(28, 83, 142, 0.4)" class="triangle-float2"></path><path d="M935.068,568.778C957.889,568.139,976.941,551.696,986.62,531.019C995.009,513.097,987.6,493.757,978.38,476.248C968.205,456.926,956.822,435.025,935.068,433.122C910.865,431.005,888.207,446.148,876.291,467.32C864.592,488.106,866.301,513.415,878.258,534.054C890.182,554.637,911.29,569.444,935.068,568.778" fill="rgba(28, 83, 142, 0.4)" class="triangle-float3"></path></g><defs><mask id="SvgjsMask1228"><rect width="1440" height="560" fill="#ffffff"></rect></mask><style>
            @keyframes float1 {
                0%{transform: translate(0, 0)}
                50%{transform: translate(-10px, 0)}
                100%{transform: translate(0, 0)}
            }

            .triangle-float1 {
                animation: float1 5s infinite;
            }

            @keyframes float2 {
                0%{transform: translate(0, 0)}
                50%{transform: translate(-5px, -5px)}
                100%{transform: translate(0, 0)}
            }

            .triangle-float2 {
                animation: float2 4s infinite;
            }

            @keyframes float3 {
                0%{transform: translate(0, 0)}
                50%{transform: translate(0, -10px)}
                100%{transform: translate(0, 0)}
            }

            .triangle-float3 {
                animation: float3 6s infinite;
            }
        </style></defs></svg>