<svg xmlns="http://www.w3.org/2000/svg" version="1.1" xmlns:xlink="http://www.w3.org/1999/xlink" xmlns:svgjs="http://svgjs.com/svgjs" width="1440" height="560" preserveAspectRatio="none" viewBox="0 0 1440 560"><g mask="url(&quot;#SvgjsMask1220&quot;)" fill="none"><path d="M181.467,544.792C198.229,545.336,209.399,529.636,217.882,515.169C226.503,500.467,234.416,483.245,226.363,468.225C217.997,452.622,199.14,446.197,181.467,447.251C165.524,448.202,152.071,458.769,144.981,473.08C138.63,485.9,142.443,500.179,148.931,512.93C156.309,527.43,165.207,544.264,181.467,544.792" fill="rgba(28, 83, 142, 0.4)" class="triangle-float3"></path><path d="M368.465,495.492C387.268,495.715,406.161,490.216,416.832,474.733C429.108,456.922,434.581,433.609,424.195,414.633C413.476,395.048,390.788,386.001,368.465,386.36C346.798,386.709,325.936,397.247,315.758,416.378C306.097,434.537,310.645,456.49,322.049,473.608C332.214,488.866,350.132,495.274,368.465,495.492" fill="rgba(28, 83, 142, 0.4)" class="triangle-float1"></path><path d="M798.355,550.197C814.618,550.048,831.021,543.036,838.399,528.542C845.283,515.019,838.044,500.028,830.635,486.786C822.969,473.084,814.032,457.84,798.355,456.965C781.611,456.03,767.484,468.236,759.162,482.795C750.91,497.232,748.656,514.915,757.015,529.29C765.334,543.597,781.806,550.349,798.355,550.197" fill="rgba(28, 83, 142, 0.4)" class="triangle-float2"></path><path d="M435.497,761.815C483.686,761.244,524.833,732.883,551.268,692.588C581.131,647.068,603.703,591.396,579.189,542.787C552.75,490.362,494.069,458.925,435.497,463.027C382.364,466.748,347.433,513.462,322.893,560.735C300.689,603.507,291.329,653.34,314.876,695.388C338.913,738.312,386.304,762.398,435.497,761.815" fill="rgba(28, 83, 142, 0.4)" class="triangle-float2"></path><path d="M1194.225,310.7C1242.195,307.684,1281.765,279.475,1308.319,239.411C1338.814,193.402,1369.019,136.356,1341.49,88.514C1313.925,40.61,1249.494,41.267,1194.225,41.131C1138.605,40.994,1076.409,41.414,1045.697,87.786C1012.584,137.784,1018.988,205.607,1052.24,255.513C1082.417,300.803,1139.909,314.115,1194.225,310.7" fill="rgba(28, 83, 142, 0.4)" class="triangle-float1"></path><path d="M1138.376,195.38C1178.823,195.405,1213.597,168.548,1232.831,132.967C1251.115,99.143,1250.044,58.353,1230.272,25.377C1211.056,-6.671,1175.675,-22.314,1138.376,-24.566C1095.791,-27.137,1046.933,-23.617,1025.017,12.986C1002.741,50.191,1021.233,96.02,1044.123,132.85C1065.454,167.171,1097.966,195.355,1138.376,195.38" fill="rgba(28, 83, 142, 0.4)" class="triangle-float3"></path><path d="M402.714,355.517C455.407,352.31,499.877,318.299,524.239,271.466C546.749,228.193,538.749,178.95,517.367,135.108C492.176,83.455,460.128,24.774,402.714,22.285C342.796,19.688,298.952,72.148,269.445,124.361C240.528,175.529,223.194,237.082,252.55,288C281.93,338.959,344.001,359.09,402.714,355.517" fill="rgba(28, 83, 142, 0.4)" class="triangle-float2"></path><path d="M257.913,376.391C304.431,375.658,347.854,353.126,371.796,313.235C396.465,272.132,401.486,219.923,376.306,179.13C352.16,140.012,303.882,129.026,257.913,128.736C211.288,128.442,162.018,138.335,136.908,177.622C110.106,219.558,111.754,274.416,137.634,316.927C162.56,357.873,209.983,377.147,257.913,376.391" fill="rgba(28, 83, 142, 0.4)" class="triangle-float2"></path><path d="M817.901,118.336C838.376,117.878,854.734,104.216,865.956,87.084C878.714,67.608,890.46,44.284,880.052,23.457C868.848,1.037,842.962,-9.403,817.901,-9.079C793.423,-8.762,769.9,3.379,758.474,25.029C747.68,45.481,753.545,69.818,765.968,89.323C777.385,107.249,796.653,118.812,817.901,118.336" fill="rgba(28, 83, 142, 0.4)" class="triangle-float2"></path><path d="M1440.891,249.919C1486.067,250.696,1528.51,226.161,1550.38,186.624C1571.608,148.248,1565.708,101.987,1543.705,64.05C1521.786,26.259,1484.536,-0.225,1440.891,-2.152C1393.621,-4.239,1344.079,12.886,1321.047,54.218C1298.47,94.734,1313.514,143.411,1337.737,182.966C1360.682,220.435,1396.961,249.163,1440.891,249.919" fill="rgba(28, 83, 142, 0.4)" class="triangle-float2"></path><path d="M1399.962,164.661C1433.751,163.683,1465.145,148.613,1483.493,120.223C1503.676,88.993,1512.876,49.713,1495.497,16.84C1477.122,-17.918,1439.26,-36.586,1399.962,-37.782C1358.284,-39.05,1314.342,-25.582,1293.797,10.702C1273.476,46.591,1284.202,91.361,1307.615,125.314C1327.974,154.838,1364.114,165.699,1399.962,164.661" fill="rgba(28, 83, 142, 0.4)" class="triangle-float2"></path></g><defs><mask id="SvgjsMask1220"><rect width="1440" height="560" fill="#ffffff"></rect></mask><style>
            @keyframes float1 {
                0%{transform: translate(0, 0)}
                50%{transform: translate(-10px, 0)}
                100%{transform: translate(0, 0)}
            }

            .triangle-float1 {
                animation: float1 5s infinite;
            }

            @keyframes float2 {
                0%{transform: translate(0, 0)}
                50%{transform: translate(-5px, -5px)}
                100%{transform: translate(0, 0)}
            }

            .triangle-float2 {
                animation: float2 4s infinite;
            }

            @keyframes float3 {
                0%{transform: translate(0, 0)}
                50%{transform: translate(0, -10px)}
                100%{transform: translate(0, 0)}
            }

            .triangle-float3 {
                animation: float3 6s infinite;
            }
        </style></defs></svg>