<svg xmlns="http://www.w3.org/2000/svg" version="1.1" xmlns:xlink="http://www.w3.org/1999/xlink" xmlns:svgjs="http://svgjs.com/svgjs" width="1440" height="560" preserveAspectRatio="none" viewBox="0 0 1440 560"><g mask="url(&quot;#SvgjsMask1064&quot;)" fill="none"><rect width="60" height="60" clip-path="url(&quot;#SvgjsClipPath1065&quot;)" x="668.73" y="433.37" fill="url(#SvgjsPattern1066)" transform="rotate(90.28, 698.73, 463.37)"></rect><path d="M588.66 553.35a5.6 5.6 0 1 0 2.34 10.95 5.6 5.6 0 1 0-2.34-10.95zM592 568.99a5.6 5.6 0 1 0 2.34 10.96 5.6 5.6 0 1 0-2.34-10.96zM595.35 584.64a5.6 5.6 0 1 0 2.34 10.95 5.6 5.6 0 1 0-2.34-10.95zM598.69 600.29a5.6 5.6 0 1 0 2.34 10.95 5.6 5.6 0 1 0-2.34-10.95zM566.32 525.4a5.6 5.6 0 1 0 2.34 10.95 5.6 5.6 0 1 0-2.34-10.95zM569.66 541.05a5.6 5.6 0 1 0 2.35 10.95 5.6 5.6 0 1 0-2.35-10.95zM573.01 556.69a5.6 5.6 0 1 0 2.34 10.95 5.6 5.6 0 1 0-2.34-10.95zM576.35 572.34a5.6 5.6 0 1 0 2.35 10.95 5.6 5.6 0 1 0-2.35-10.95zM543.98 497.45a5.6 5.6 0 1 0 2.34 10.96 5.6 5.6 0 1 0-2.34-10.96zM547.33 513.1a5.6 5.6 0 1 0 2.34 10.95 5.6 5.6 0 1 0-2.34-10.95zM550.67 528.75a5.6 5.6 0 1 0 2.34 10.95 5.6 5.6 0 1 0-2.34-10.95zM554.02 544.39a5.6 5.6 0 1 0 2.34 10.95 5.6 5.6 0 1 0-2.34-10.95z" fill="#d3b714"></path><rect width="302.72" height="302.72" clip-path="url(&quot;#SvgjsClipPath1067&quot;)" x="1030.58" y="26.36" fill="url(#SvgjsPattern1068)" transform="rotate(312.73, 1181.94, 177.72)"></rect><circle r="47.637462515122216" cx="1224.42" cy="492.9" fill="#037b0b"></circle><path d="M1412.6599999999999 254.48000000000002 L1323.9099999999999 272.42L1313.1444513892163 208.30945138921658z" fill="rgba(168, 6, 255, 1)"></path><rect width="348" height="348" clip-path="url(&quot;#SvgjsClipPath1069&quot;)" x="63.08" y="112.09" fill="url(#SvgjsPattern1070)" transform="rotate(266.17, 237.08, 286.09)"></rect><path d="M662.67 443.62 L628.6 517.14L601.3982327858469 436.1432327858468z" stroke="#037b0b" stroke-width="2.92" stroke-dasharray="3, 3"></path><rect width="336" height="336" clip-path="url(&quot;#SvgjsClipPath1071&quot;)" x="1180.05" y="-57.83" fill="url(#SvgjsPattern1072)" transform="rotate(54.9, 1348.05, 110.17)"></rect><path d="M1492.73 278.65 L1466.9099999999999 245.73000000000002L1456.7421278405695 285.26787215943034z" stroke="rgba(255, 255, 255, 1)" stroke-width="1" stroke-dasharray="2, 2"></path><rect width="84" height="84" clip-path="url(&quot;#SvgjsClipPath1073&quot;)" x="62.79" y="251.06" fill="url(#SvgjsPattern1074)" transform="rotate(328.47, 104.79, 293.06)"></rect><rect width="312" height="312" clip-path="url(&quot;#SvgjsClipPath1075&quot;)" x="328.38" y="-149.17" fill="url(#SvgjsPattern1076)" transform="rotate(155.38, 484.38, 6.83)"></rect><rect width="98.2" height="98.2" clip-path="url(&quot;#SvgjsClipPath1077&quot;)" x="1291.79" y="-15.73" fill="url(#SvgjsPattern1078)" transform="rotate(278.12, 1340.89, 33.37)"></rect></g><defs><mask id="SvgjsMask1064"><rect width="1440" height="560" fill="#ffffff"></rect></mask><pattern x="0" y="0" width="60" height="6" patternUnits="userSpaceOnUse" id="SvgjsPattern1066"><rect width="60" height="3" x="0" y="0" fill="rgba(168, 6, 255, 1)"></rect><rect width="60" height="3" x="0" y="3" fill="rgba(0, 0, 0, 0)"></rect></pattern><clipPath id="SvgjsClipPath1065"><circle r="15" cx="698.73" cy="463.37"></circle></clipPath><pattern x="0" y="0" width="9.46" height="9.46" patternUnits="userSpaceOnUse" id="SvgjsPattern1068"><path d="M4.73 1L4.73 8.46M1 4.73L8.46 4.73" stroke="#d3b714" fill="none" stroke-width="1.06"></path></pattern><clipPath id="SvgjsClipPath1067"><circle r="75.68" cx="1181.94" cy="177.72"></circle></clipPath><pattern x="0" y="0" width="6" height="6" patternUnits="userSpaceOnUse" id="SvgjsPattern1070"><path d="M0 6L3 0L6 6" stroke="rgba(48, 49, 63, 1)" fill="none"></path></pattern><clipPath id="SvgjsClipPath1069"><circle r="87" cx="237.08" cy="286.09"></circle></clipPath><pattern x="0" y="0" width="336" height="6" patternUnits="userSpaceOnUse" id="SvgjsPattern1072"><rect width="336" height="3" x="0" y="0" fill="rgba(168, 6, 255, 1)"></rect><rect width="336" height="3" x="0" y="3" fill="rgba(0, 0, 0, 0)"></rect></pattern><clipPath id="SvgjsClipPath1071"><circle r="84" cx="1348.05" cy="110.17"></circle></clipPath><pattern x="0" y="0" width="84" height="6" patternUnits="userSpaceOnUse" id="SvgjsPattern1074"><rect width="84" height="3" x="0" y="0" fill="#d3b714"></rect><rect width="84" height="3" x="0" y="3" fill="rgba(0, 0, 0, 0)"></rect></pattern><clipPath id="SvgjsClipPath1073"><circle r="21" cx="104.79" cy="293.06"></circle></clipPath><pattern x="0" y="0" width="312" height="6" patternUnits="userSpaceOnUse" id="SvgjsPattern1076"><rect width="312" height="3" x="0" y="0" fill="#d3b714"></rect><rect width="312" height="3" x="0" y="3" fill="rgba(0, 0, 0, 0)"></rect></pattern><clipPath id="SvgjsClipPath1075"><circle r="78" cx="484.38" cy="6.83"></circle></clipPath><pattern x="0" y="0" width="98.2" height="9.82" patternUnits="userSpaceOnUse" id="SvgjsPattern1078"><rect width="98.2" height="4.91" x="0" y="0" fill="#d3b714"></rect><rect width="98.2" height="4.91" x="0" y="4.91" fill="rgba(0, 0, 0, 0)"></rect></pattern><clipPath id="SvgjsClipPath1077"><circle r="24.55" cx="1340.89" cy="33.37"></circle></clipPath></defs></svg>