<svg xmlns="http://www.w3.org/2000/svg" version="1.1" xmlns:xlink="http://www.w3.org/1999/xlink" xmlns:svgjs="http://svgjs.com/svgjs" width="1920" height="1080" preserveAspectRatio="none" viewBox="0 0 1920 1080"><g mask="url(&quot;#SvgjsMask1023&quot;)" fill="none"><path d="M1366.65 649.46a28.41 28.41 0 1 0 56.56 5.35z" stroke="#037b0b"></path><path d="M1845.34 805.22L1867.01 805.22L1867.01 860.01L1845.34 860.01z" stroke="rgba(255, 255, 255, 1)"></path><path d="M759.4 99.1a33.86 33.86 0 1 0-2.31-67.68z" fill="rgba(164, 6, 249, 1)"></path><path d="M133.53 117.31 a53.75 53.75 0 1 0 107.5 0 a53.75 53.75 0 1 0 -107.5 0z" stroke="#037b0b"></path><path d="M306.83 772.36L340.03 772.36L340.03 857.27L306.83 857.27z" fill="#d3b714"></path><path d="M364.71 543.22a106.92 106.92 0 1 0 162.76-138.7z" stroke="#037b0b"></path><path d="M1255.54 27.14L1282.02 27.14L1282.02 53.62L1255.54 53.62z" stroke="#037b0b"></path><path d="M1364.65 88.02L1425.72 88.02L1425.72 149.09L1364.65 149.09z" fill="#037b0b"></path><path d="M1175.61 984.97 a85.81 85.81 0 1 0 171.62 0 a85.81 85.81 0 1 0 -171.62 0z" stroke="rgba(255, 255, 255, 1)"></path><path d="M162.22 495.36L248.92 495.36L248.92 509.33L162.22 509.33z" fill="rgba(255, 255, 255, 1)"></path><path d="M1685.05 809.04a57.2 57.2 0 1 0-72.75 88.29z" stroke="#037b0b"></path><path d="M917.83 898.07L975.59 898.07L975.59 1004.13L917.83 1004.13z" stroke="rgba(164, 6, 249, 1)"></path><path d="M610.1 727.11 a7.63 7.63 0 1 0 15.26 0 a7.63 7.63 0 1 0 -15.26 0z" fill="#037b0b"></path><path d="M1539.75 239.27L1603.6 239.27L1603.6 303.12L1539.75 303.12z" stroke="rgba(164, 6, 249, 1)"></path><path d="M1304.73 794.71a59.08 59.08 0 1 0-117.73-10.03z" stroke="rgba(255, 255, 255, 1)"></path><path d="M1564.03 150.63L1568.98 150.63L1568.98 176.83L1564.03 176.83z" stroke="rgba(164, 6, 249, 1)"></path><path d="M451.75 498.93a49.55 49.55 0 1 0-93.11 33.92z" stroke="#d3b714"></path><path d="M306.68 197.72L356.52 197.72L356.52 247.56L306.68 247.56z" stroke="rgba(255, 255, 255, 1)"></path><path d="M150.5 990.28L235.44 990.28L235.44 1075.22L150.5 1075.22z" stroke="rgba(164, 6, 249, 1)"></path><path d="M658.76 60.3L747.76 60.3L747.76 141.44L658.76 141.44z" stroke="rgba(164, 6, 249, 1)"></path><path d="M221.22 636.85L278.44 636.85L278.44 737.19L221.22 737.19z" fill="rgba(255, 255, 255, 1)"></path><path d="M1771.99 980.74L1840.41 980.74L1840.41 1061.71L1771.99 1061.71z" fill="#037b0b"></path><path d="M407.02 262.38a19.26 19.26 0 1 0 34.52-17.08z" stroke="rgba(164, 6, 249, 1)"></path></g><defs><mask id="SvgjsMask1023"><rect width="1920" height="1080" fill="#ffffff"></rect></mask></defs></svg>